<?xml version="1.0" encoding="UTF-8"?>
<svg version="1.1" xmlns="http://www.w3.org/2000/svg" width="512" height="512">
<path d="M0 0 C0.78988312 -0.0096579 1.57976624 -0.0193158 2.39358521 -0.02926636 C4.93952177 -0.05399388 7.48520642 -0.06665174 10.03125 -0.07421875 C10.90029968 -0.07716949 11.76934937 -0.08012024 12.66473389 -0.0831604 C26.96742186 -0.09419922 40.55329035 1.04823002 54.53125 4.23828125 C55.97638717 4.55029235 57.42168787 4.86154746 58.8671875 5.171875 C61.76879739 5.81839575 64.65293995 6.49621694 67.53125 7.23828125 C68.645 5.78421875 68.645 5.78421875 69.78125 4.30078125 C71.86992517 1.57389978 73.18166919 0.88414859 76.53125 0.23828125 C78.00039397 0.14552229 79.47301762 0.10042318 80.94506836 0.09301758 C82.24177711 0.0834478 82.24177711 0.0834478 83.56468201 0.07368469 C84.49079788 0.07257187 85.41691376 0.07145905 86.37109375 0.0703125 C87.80975548 0.0653199 87.80975548 0.0653199 89.27748108 0.06022644 C91.30404176 0.05516846 93.33061075 0.05281777 95.35717773 0.05297852 C98.45375302 0.05079184 101.54997208 0.03262358 104.64648438 0.01367188 C106.61718628 0.01073775 108.58788988 0.00875308 110.55859375 0.0078125 C111.94473122 -0.00296577 111.94473122 -0.00296577 113.35887146 -0.01396179 C118.79042737 0.00529871 122.67578463 0.4027909 127.33154297 3.39550781 C129.23282993 6.31592173 128.83049376 9.36225999 128.7265625 12.72265625 C128.71958901 14.23046162 128.71443903 15.73827632 128.7109375 17.24609375 C128.69035701 19.61481019 128.65646218 21.98073942 128.58984375 24.34863281 C128.05976141 33.54449028 128.05976141 33.54449028 131.41918945 41.7253418 C133.70731769 43.49278405 135.98552397 44.87660116 138.53125 46.23828125 C141.95709182 49.14162058 145.24874822 52.17427417 148.53125 55.23828125 C149.32273437 55.96402344 150.11421875 56.68976562 150.9296875 57.4375 C183.69514095 88.66541599 205.47420631 137.62838358 206.82279968 182.78489685 C206.89925379 186.72805205 206.91553696 190.66947005 206.90625 194.61328125 C206.90603851 195.44566315 206.90582703 196.27804504 206.90560913 197.13565063 C206.87016863 211.16588857 205.72938417 224.54056302 202.53125 238.23828125 C202.34401367 239.07794434 202.15677734 239.91760742 201.96386719 240.78271484 C193.7408467 277.11880795 174.74985507 309.01967618 148.53125 335.23828125 C147.86867188 335.95886719 147.20609375 336.67945313 146.5234375 337.421875 C113.64094695 372.42777361 62.70683969 389.90469992 15.640625 391.4921875 C-35.62841283 392.4252447 -81.58632158 373.95273502 -120.46875 341.23828125 C-124.23478869 342.80111107 -126.60514151 345.14462875 -129.453125 348.02734375 C-129.91358215 348.4906308 -130.37403931 348.95391785 -130.84844971 349.4312439 C-132.31000078 350.90394023 -133.76442168 352.38345528 -135.21875 353.86328125 C-136.21177611 354.86634447 -137.20526089 355.86895382 -138.19921875 356.87109375 C-140.62772941 359.3215896 -143.04989675 361.77824795 -145.46875 364.23828125 C-144.52877858 365.33605118 -143.58864163 366.43367938 -142.6484375 367.53125 C-141.86315674 368.44813599 -141.86315674 368.44813599 -141.06201172 369.38354492 C-140.01679511 370.60029493 -138.96522078 371.81161828 -137.90673828 373.0168457 C-134.62421344 376.85174782 -133.40266189 380.44697258 -133.77437878 385.51206875 C-134.63012376 388.87186043 -135.95344336 390.34701344 -138.32868958 392.85768127 C-139.14800776 393.72945574 -139.96732594 394.6012302 -140.81147194 395.49942207 C-141.6883737 396.4032456 -142.56527546 397.30706913 -143.46875 398.23828125 C-144.32112432 399.11836287 -145.17349865 399.99844448 -146.0517025 400.90519524 C-148.87921391 403.79245293 -151.72865949 406.65643516 -154.5847168 409.51538086 C-155.67007831 410.60538435 -156.7552472 411.69557968 -157.84024048 412.78594971 C-160.75695179 415.71563825 -163.67686583 418.64211269 -166.5978353 421.56755519 C-168.42607254 423.39874186 -170.25372913 425.23050618 -172.08121681 427.06244087 C-177.81018845 432.80503705 -183.54112081 438.5456655 -189.27496785 444.2833938 C-195.87596186 450.88888253 -202.47033471 457.50088965 -209.05912465 464.11855119 C-214.16998252 469.25102189 -219.28658714 474.37771685 -224.40759403 479.50006109 C-227.45959944 482.55311307 -230.50914009 485.60853251 -233.55270958 488.66999626 C-236.40996489 491.54372942 -239.27429398 494.4102182 -242.14418411 497.27133179 C-243.19407668 498.32045434 -244.24142004 499.3721353 -245.28597069 500.42657661 C-246.71493524 501.86827347 -248.15414323 503.29979558 -249.59379578 504.7308197 C-250.39512782 505.53361831 -251.19645987 506.33641691 -252.0220747 507.16354275 C-256.73872182 511.16317825 -260.82447366 512.65716894 -266.96875 512.61328125 C-268.0515625 512.62101563 -269.134375 512.62875 -270.25 512.63671875 C-278.51875618 511.61315913 -283.70308716 505.72309518 -289.46875 500.23828125 C-290.43039062 499.34109375 -291.39203125 498.44390625 -292.3828125 497.51953125 C-299.99127377 490.30065987 -305.60759873 484.50380928 -306.03125 473.67578125 C-306.04382664 463.60188911 -300.33875313 457.59790617 -293.60163879 450.84016418 C-292.51920966 449.7671045 -291.43657652 448.69425057 -290.35375977 447.62158203 C-289.207751 446.47178564 -288.06260141 445.32113236 -286.91824341 444.16969299 C-283.82206282 441.0596025 -280.71352053 437.9621523 -277.60212827 434.86728907 C-274.34302875 431.62207986 -271.0941342 428.36668121 -267.84373474 425.11276245 C-262.38742703 419.65375673 -256.92310561 414.20287495 -251.45385742 408.75683594 C-245.13240065 402.46201956 -238.82350386 396.15482706 -232.52122456 389.84081471 C-226.45201198 383.76082338 -220.37434991 377.689348 -214.29267693 371.62182236 C-211.70674201 369.041643 -209.12374672 366.45857271 -206.54306221 363.87314224 C-203.50557478 360.83088235 -200.46074395 357.79616728 -197.41008377 354.76711845 C-196.2920748 353.65467258 -195.17660046 352.5396727 -194.06386757 351.42194939 C-192.54436702 349.89649034 -191.01593366 348.38057885 -189.48487854 346.86672974 C-188.63188455 346.01616564 -187.77889055 345.16560154 -186.90004826 344.28926277 C-183.35919326 341.30228733 -179.93271808 339.81515341 -175.28125 340.05078125 C-169.69222463 340.78100567 -166.51245062 344.27284397 -162.6328125 348.109375 C-160.46134064 350.37905609 -160.46134064 350.37905609 -157.46875 352.23828125 C-154.34751833 349.16649031 -151.23291015 346.08818049 -148.12426758 343.00366211 C-147.06584345 341.95529504 -146.00563117 340.90873009 -144.94360352 339.86401367 C-143.41729529 338.36196654 -141.89753686 336.8535542 -140.37890625 335.34375 C-139.46246338 334.43778076 -138.54602051 333.53181152 -137.60180664 332.59838867 C-135.28301926 330.35026181 -135.28301926 330.35026181 -134.46875 327.23828125 C-136.02127581 324.89004812 -136.02127581 324.89004812 -138.28125 322.42578125 C-171.94777342 282.61915 -187.89899553 231.99514931 -184.1171875 180.01953125 C-179.90923704 129.84999394 -156.9404528 81.04133734 -118.51098633 47.95703125 C-85.54756753 20.21495494 -43.75019406 0.4497857 0 0 Z " fill="#54A0FE" transform="translate(305.46875,-0.23828125)"/>
<path d="M0 0 C1.29670876 -0.00956978 1.29670876 -0.00956978 2.61961365 -0.01933289 C3.54572952 -0.02044571 4.4718454 -0.02155853 5.42602539 -0.02270508 C6.86468712 -0.02769768 6.86468712 -0.02769768 8.33241272 -0.03279114 C10.3589734 -0.03784912 12.38554239 -0.04019981 14.41210938 -0.04003906 C17.50868466 -0.04222574 20.60490372 -0.06039399 23.70141602 -0.0793457 C25.67211792 -0.08227983 27.64282152 -0.0842645 29.61352539 -0.08520508 C30.99966286 -0.09598335 30.99966286 -0.09598335 32.4138031 -0.10697937 C37.68439204 -0.08828966 41.88565866 0.02511081 46.18967909 3.40415305 C48.06629005 5.74384607 47.97319809 7.19470113 47.9944315 10.17612934 C48.00903843 11.22197077 48.02364535 12.2678122 48.03869492 13.3453458 C48.03950607 14.49823303 48.04031722 15.65112027 48.04115295 16.83894348 C48.05359415 18.0607781 48.06603535 19.28261271 48.07885355 20.54147261 C48.11012632 23.93964964 48.12781912 27.33740536 48.13960516 30.73567379 C48.15541934 34.39857953 48.18821843 38.06134141 48.21839905 41.72415161 C48.28722989 50.57577436 48.32654202 59.42743414 48.36124697 68.27924708 C48.37465156 71.61421323 48.38969553 74.94917117 48.40471726 78.28413037 C48.47061413 92.99033388 48.52673277 107.69654651 48.55794621 122.40286732 C48.56571529 126.00311619 48.57355896 129.60336488 48.58154297 133.20361328 C48.58351881 134.09841948 48.58549465 134.99322567 48.58753037 135.91514721 C48.62110167 150.3942273 48.7128264 164.87232763 48.82872731 179.35095886 C48.94681052 194.22435497 49.01180424 209.09725167 49.02543157 223.97111624 C49.03440873 232.31898611 49.06645392 240.6653572 49.15809822 249.01276588 C49.23605337 256.12628484 49.26575012 263.23798238 49.23374052 270.35189114 C49.21887913 273.97829529 49.22608154 277.60090827 49.29543304 281.22676277 C49.72877 305.18541866 49.72877 305.18541866 42.81434959 312.84272832 C39.91578319 315.57041719 36.84473805 317.87109331 33.58618164 320.14526367 C32.27167522 321.1679532 30.96396574 322.19944619 29.66360569 323.24006367 C15.56577828 334.4961368 -0.23267077 342.86682016 -17.34057617 348.46362305 C-19.13249212 349.05276922 -20.91134596 349.68137141 -22.68725586 350.31713867 C-29.56591114 352.66418641 -36.59255679 354.07701803 -43.72631836 355.39526367 C-44.63865234 355.57081787 -45.55098633 355.74637207 -46.4909668 355.92724609 C-52.30551749 356.93658932 -57.91406279 357.24202788 -63.79736328 357.19116211 C-64.53280113 357.18784882 -65.26823898 357.18453552 -66.02596283 357.18112183 C-67.82193399 357.17254982 -69.61788223 357.15938171 -71.41381836 357.14526367 C-71.50532145 319.88690661 -71.5758304 282.62856644 -71.61807968 245.3701198 C-71.62308266 240.97404127 -71.62825994 236.57796296 -71.63354492 232.18188477 C-71.63459416 231.30668388 -71.63564341 230.43148299 -71.63672444 229.52976087 C-71.65414213 215.34810298 -71.68568731 201.16650979 -71.72242954 186.98489031 C-71.75980106 172.43935541 -71.78204618 157.89385446 -71.79017234 143.34827352 C-71.795668 134.36875777 -71.81304171 125.38942485 -71.84548423 116.40996537 C-71.86658538 110.25712993 -71.87302842 104.10438937 -71.86782387 97.95152035 C-71.86525519 94.39858181 -71.86926481 90.8459633 -71.89064026 87.29308128 C-71.91362229 83.4451661 -71.90579671 79.59767133 -71.89483643 75.74969482 C-71.90648779 74.62129834 -71.91813916 73.49290185 -71.93014359 72.33031154 C-71.9221794 71.30171244 -71.91421521 70.27311334 -71.90600967 69.21334457 C-71.908288 67.88052621 -71.908288 67.88052621 -71.91061234 66.52078223 C-71.25146282 63.36892857 -69.85106585 62.17693934 -67.41381836 60.14526367 C-64.88637748 58.88154323 -63.15001527 59.02503572 -60.3215332 59.03173828 C-58.73011002 59.03185158 -58.73011002 59.03185158 -57.10653687 59.03196716 C-55.38305527 59.03970909 -55.38305527 59.03970909 -53.62475586 59.04760742 C-52.45119537 59.04902237 -51.27763489 59.05043732 -50.06851196 59.05189514 C-46.30858851 59.05750678 -42.54872391 59.07006129 -38.78881836 59.08276367 C-36.24454838 59.08777717 -33.70027748 59.09234034 -31.15600586 59.09643555 C-24.90858983 59.10748 -18.6612083 59.12422949 -12.41381836 59.14526367 C-12.42270081 58.47763 -12.43158325 57.80999634 -12.44073486 57.12213135 C-12.52916309 50.1794083 -12.58953412 43.23684496 -12.63354492 36.29370117 C-12.65367211 33.70183821 -12.68097651 31.11002071 -12.71557617 28.51831055 C-12.76404337 24.79488918 -12.78677652 21.07206768 -12.80444336 17.34838867 C-12.8250885 16.18784973 -12.84573364 15.02731079 -12.86700439 13.831604 C-12.86730652 12.75078552 -12.86760864 11.66996704 -12.86791992 10.55639648 C-12.87680237 9.60597473 -12.88568481 8.65555298 -12.89483643 7.67633057 C-12.26273874 4.35029848 -11.0606908 3.19962762 -8.41381836 1.14526367 C-5.61192775 0.09367489 -2.97604419 0.01497189 0 0 Z " fill="#ED5253" transform="translate(386.413818359375,-0.145263671875)"/>
<path d="M0 0 C17.82 0 35.64 0 54 0 C54 78.87 54 157.74 54 239 C19.79507841 237.09972658 -12.76205585 228.80801363 -40 207 C-40.84691406 206.34257812 -41.69382813 205.68515625 -42.56640625 205.0078125 C-48.22248413 200.56930253 -53.8541041 196.02728483 -59 191 C-59.74350409 190.34053596 -59.74350409 190.34053596 -60.50202847 189.6677494 C-64.94683305 185.26570114 -65.70257862 181.79571453 -65.77984619 175.63270569 C-65.76298767 174.55298996 -65.74612915 173.47327423 -65.72875977 172.36083984 C-65.73730232 170.63034142 -65.73730232 170.63034142 -65.74601746 168.86488342 C-65.75710474 165.0629399 -65.72508679 161.26272738 -65.69140625 157.4609375 C-65.68782863 154.81491294 -65.68647183 152.16888453 -65.6872406 149.52285767 C-65.6844367 143.9831197 -65.65846476 138.4438767 -65.61743164 132.90429688 C-65.57021429 126.50632054 -65.55443925 120.10888512 -65.5566383 113.71074712 C-65.55847124 107.54423877 -65.54281228 101.37793444 -65.51826286 95.21147537 C-65.50871323 92.59199712 -65.50280306 89.97250299 -65.50058174 87.35300827 C-65.49408253 83.69518697 -65.46783361 80.03804629 -65.43579102 76.38037109 C-65.43715057 75.2966069 -65.43851013 74.21284271 -65.43991089 73.09623718 C-65.31928674 63.68722092 -65.31928674 63.68722092 -62 60 C-58.94134597 57.85930447 -56.35699314 57.75544289 -52.68066406 57.77294922 C-51.61986633 57.77310028 -50.5590686 57.77325134 -49.46612549 57.77340698 C-48.32746033 57.78372955 -47.18879517 57.79405212 -46.015625 57.8046875 C-44.25952911 57.80893234 -44.25952911 57.80893234 -42.46795654 57.81326294 C-38.72853375 57.82445844 -34.98935041 57.84956224 -31.25 57.875 C-28.71484721 57.8850306 -26.17969066 57.89415631 -23.64453125 57.90234375 C-17.42960579 57.92439574 -11.21482 57.95786725 -5 58 C-5.01665459 57.02067253 -5.01665459 57.02067253 -5.03364563 56.02156067 C-5.14428563 49.22471805 -5.21968702 42.42813132 -5.2746582 35.63061523 C-5.29979839 33.0940512 -5.33391537 30.55755958 -5.37719727 28.02124023 C-5.43786661 24.37465549 -5.46621574 20.72902868 -5.48828125 17.08203125 C-5.51408768 15.94852737 -5.5398941 14.8150235 -5.56648254 13.64717102 C-5.5668602 12.58644882 -5.56723785 11.52572662 -5.56762695 10.43286133 C-5.58428154 9.03720695 -5.58428154 9.03720695 -5.60127258 7.61335754 C-5 5 -5 5 0 0 Z " fill="#15B98B" transform="translate(260,118)"/>
<path d="M0 0 C0 4.62 0 9.24 0 14 C-2.37687012 14.029729 -2.37687012 14.029729 -4.80175781 14.06005859 C-10.67610674 14.13608277 -16.55020694 14.22480545 -22.42431641 14.31738281 C-24.96756076 14.35568566 -27.51085952 14.3905362 -30.05419922 14.421875 C-33.70820577 14.46749662 -37.36183727 14.52549678 -41.015625 14.5859375 C-42.72362274 14.60326431 -42.72362274 14.60326431 -44.46612549 14.62094116 C-46.05732208 14.6507457 -46.05732208 14.6507457 -47.68066406 14.68115234 C-48.61332092 14.69447601 -49.54597778 14.70779968 -50.50689697 14.7215271 C-53.13796791 15.01541064 -54.77703418 15.58007029 -57 17 C-58.23009265 19.46018529 -58.13043939 21.06986499 -58.1386652 23.82198524 C-58.14413964 24.84660225 -58.14961409 25.87121925 -58.15525442 26.92688525 C-58.15623253 28.06110741 -58.15721064 29.19532958 -58.15821838 30.36392212 C-58.16315636 31.56211181 -58.16809434 32.7603015 -58.17318195 33.99479997 C-58.18592552 37.33095152 -58.19419108 40.66706101 -58.20060861 44.00322723 C-58.20859785 47.59696659 -58.22230068 51.19068456 -58.23532104 54.78440857 C-58.25710479 61.01422076 -58.27524232 67.24403509 -58.29092598 73.47386551 C-58.31360735 82.4812314 -58.34175256 91.48857365 -58.37124526 100.49591951 C-58.41894245 115.10859737 -58.46220086 129.72128488 -58.50268555 144.33398438 C-58.54202966 158.53158317 -58.58345327 172.72917337 -58.62768555 186.92675781 C-58.63177196 188.2387542 -58.63177196 188.2387542 -58.63594092 189.57725556 C-58.64962022 193.96504728 -58.66334052 198.35283886 -58.67708123 202.74063039 C-58.79107942 239.16040244 -58.89788137 275.5801928 -59 312 C-59.33 312 -59.66 312 -60 312 C-60 233.13 -60 154.26 -60 73 C-91.84013899 68.818928 -91.84013899 68.818928 -118 78 C-118.61094121 80.52987166 -118.61094121 80.52987166 -118.54589844 83.31933594 C-118.56561707 84.38013367 -118.58533569 85.4409314 -118.60565186 86.53387451 C-118.60688049 87.67253967 -118.60810913 88.81120483 -118.609375 89.984375 C-118.62591125 91.15510559 -118.64244751 92.32583618 -118.65948486 93.53204346 C-118.70807081 97.27141511 -118.72936033 101.01037976 -118.75 104.75 C-118.77815066 107.28517684 -118.80807679 109.82033464 -118.83984375 112.35546875 C-118.91383281 118.57023835 -118.96541324 124.78489299 -119 131 C-119.65510559 131.00808685 -120.31021118 131.01617371 -120.98516846 131.02450562 C-127.79841657 131.11050724 -134.61137228 131.21000919 -141.42431641 131.31738281 C-143.96756076 131.35568566 -146.51085952 131.3905362 -149.05419922 131.421875 C-152.70820577 131.46749662 -156.36183727 131.52549678 -160.015625 131.5859375 C-161.72362274 131.60326431 -161.72362274 131.60326431 -163.46612549 131.62094116 C-165.05732208 131.6507457 -165.05732208 131.6507457 -166.68066406 131.68115234 C-168.07964935 131.70113785 -168.07964935 131.70113785 -169.50689697 131.7215271 C-172.19456191 132.02173204 -173.77236829 132.47136179 -176 134 C-177.8818623 137.04157801 -178.25563668 139.37556462 -178.2784729 142.92279053 C-178.28963638 143.91274521 -178.30079987 144.90269989 -178.31230164 145.9226532 C-178.31446182 147.0023085 -178.31662201 148.08196381 -178.31884766 149.19433594 C-178.33391609 150.90696373 -178.33391609 150.90696373 -178.34928894 152.65419006 C-178.38019829 156.43091322 -178.39717786 160.20756524 -178.4140625 163.984375 C-178.43276788 166.60183325 -178.45234082 169.21928542 -178.4727478 171.83673096 C-178.51952045 178.02373268 -178.55627183 184.2107517 -178.58942068 190.39783978 C-178.6276528 197.44259525 -178.67706009 204.48725848 -178.72740483 211.53193617 C-178.8307021 226.02121977 -178.91996967 240.51056945 -179 255 C-188.81157334 245.29472208 -195.65047008 234.14093156 -202 222 C-202.47179687 221.10023438 -202.94359375 220.20046875 -203.4296875 219.2734375 C-214.14894068 197.20438684 -218.33252577 174.00172476 -218.4375 149.6875 C-218.44385468 148.93612762 -218.45020935 148.18475525 -218.45675659 147.41061401 C-218.68379872 104.25786673 -199.2530056 65.21336949 -169.875 34.5 C-125.05697746 -9.17535341 -58.17741038 -22.62454848 0 0 Z " fill="#ABD5F9" transform="translate(374,45)"/>
<path d="M0 0 C0 94.71 0 189.42 0 287 C-8.69726013 290.47890405 -16.93319137 293.01153798 -26 295 C-26.70108887 295.15388184 -27.40217773 295.30776367 -28.12451172 295.46630859 C-30.24565908 295.91787621 -32.37057383 296.33937982 -34.5 296.75 C-35.7478125 296.99234375 -36.995625 297.2346875 -38.28125 297.484375 C-42.6105549 298.11315076 -46.93065293 298.05828462 -51.29492188 298.03222656 C-52.40767487 298.02873703 -52.40767487 298.02873703 -53.54290771 298.025177 C-55.36194781 298.01913672 -57.18097676 298.00988998 -59 298 C-59.09150309 260.74164294 -59.16201204 223.48330276 -59.20426132 186.22485612 C-59.2092643 181.8287776 -59.21444158 177.43269929 -59.21972656 173.03662109 C-59.2207758 172.16142021 -59.22182505 171.28621932 -59.22290608 170.3844972 C-59.24032377 156.20283931 -59.27186895 142.02124612 -59.30861118 127.83962664 C-59.3459827 113.29409174 -59.36822782 98.74859078 -59.37635398 84.20300984 C-59.38184964 75.2234941 -59.39922335 66.24416118 -59.43166587 57.26470169 C-59.45276702 51.11186626 -59.45921006 44.9591257 -59.45400551 38.80625668 C-59.45143683 35.25331814 -59.45544645 31.70069963 -59.4768219 28.14781761 C-59.49980394 24.29990243 -59.49197835 20.45240766 -59.48101807 16.60443115 C-59.49266943 15.47603467 -59.5043208 14.34763818 -59.51632524 13.18504786 C-59.50836104 12.15644877 -59.50039685 11.12784967 -59.49219131 10.0680809 C-59.49446964 8.73526254 -59.49446964 8.73526254 -59.49679399 7.37551856 C-58.83764446 4.2236649 -57.43724749 3.03167567 -55 1 C-38.599458 -7.200271 -18.33636339 0 0 0 Z " fill="#FDC957" transform="translate(374,59)"/>
<path d="M0 0 C6.46117753 4.42575004 11.54907245 10.58781961 16.73583984 16.39990234 C21.00506227 21.13996161 25.66510228 25.33679317 30.46875 29.52734375 C34.18449268 33.15707387 36.43720256 36.43076528 36.75 41.6875 C36.52040141 46.28989339 35.29748777 48.31096243 32.14787292 51.62721252 C31.32742682 52.49785906 30.50698071 53.36850559 29.66167259 54.26553535 C28.78332064 55.16790869 27.90496868 56.07028202 27 57 C26.14746454 57.87992048 25.29492908 58.75984097 24.41655922 59.6664257 C21.58955753 62.55420686 18.74010123 65.41814317 15.8840332 68.27709961 C14.79867169 69.3671031 13.7135028 70.45729843 12.62850952 71.54766846 C9.71179821 74.477357 6.79188417 77.40383144 3.8709147 80.32927394 C2.04267746 82.16046061 0.21502087 83.99222493 -1.61246681 85.82415962 C-7.34143845 91.5667558 -13.07237081 97.30738425 -18.80621785 103.04511255 C-25.40721186 109.65060128 -32.00158471 116.2626084 -38.59037465 122.88026994 C-43.70123252 128.01274064 -48.81783714 133.1394356 -53.93884403 138.26177984 C-56.99084944 141.31483182 -60.04039009 144.37025126 -63.08395958 147.43171501 C-65.94121489 150.30544817 -68.80554398 153.17193695 -71.67543411 156.03305054 C-72.72532668 157.08217309 -73.77267004 158.13385405 -74.81722069 159.18829536 C-76.24618524 160.62999222 -77.68539323 162.06151433 -79.12504578 163.49253845 C-80.32704384 164.69673636 -80.32704384 164.69673636 -81.5533247 165.9252615 C-86.26997182 169.924897 -90.35572366 171.41888769 -96.5 171.375 C-97.5828125 171.38273438 -98.665625 171.39046875 -99.78125 171.3984375 C-108.05000618 170.37487788 -113.23433716 164.48481393 -119 159 C-119.96164063 158.1028125 -120.92328125 157.205625 -121.9140625 156.28125 C-129.52252377 149.06237862 -135.13884873 143.26552803 -135.5625 132.4375 C-135.57507664 122.36360786 -129.87000313 116.35962492 -123.13288879 109.60188293 C-122.05045966 108.52882325 -120.96782652 107.45596932 -119.88500977 106.38330078 C-118.739001 105.23350439 -117.59385141 104.08285111 -116.44949341 102.93141174 C-113.35331282 99.82132125 -110.24477053 96.72387105 -107.13337827 93.62900782 C-103.87427875 90.38379861 -100.6253842 87.12839996 -97.37498474 83.8744812 C-91.91867703 78.41547548 -86.45435561 72.9645937 -80.98510742 67.51855469 C-74.66365065 61.22373831 -68.35475386 54.91654581 -62.05247456 48.60253346 C-55.98326198 42.52254213 -49.90559991 36.45106675 -43.82392693 30.38354111 C-41.23799201 27.80336175 -38.65499672 25.22029146 -36.07431221 22.63486099 C-33.03682478 19.5926011 -29.99199395 16.55788603 -26.94133377 13.5288372 C-25.8233248 12.41639133 -24.70785046 11.30139145 -23.59511757 10.18366814 C-22.07561702 8.65820909 -20.54718366 7.1422976 -19.01612854 5.62844849 C-17.73663755 4.35260234 -17.73663755 4.35260234 -16.43129826 3.05098152 C-11.34666514 -1.23828597 -6.24391243 -2.15101289 0 0 Z " fill="#EE5253" transform="translate(135,341)"/>
<path d="M0 0 C0 55.44 0 110.88 0 168 C-3.8369977 167.23260046 -5.96290735 166.70423995 -9.2578125 164.99609375 C-10.04293213 164.5892334 -10.82805176 164.18237305 -11.63696289 163.76318359 C-12.86854126 163.10697021 -12.86854126 163.10697021 -14.125 162.4375 C-14.97376709 161.98713379 -15.82253418 161.53676758 -16.69702148 161.07275391 C-23.22166773 157.5478376 -29.20583599 153.63908755 -35 149 C-35.84691406 148.34257812 -36.69382813 147.68515625 -37.56640625 147.0078125 C-43.22248413 142.56930253 -48.8541041 138.02728483 -54 133 C-54.74350409 132.34053596 -54.74350409 132.34053596 -55.50202847 131.6677494 C-59.94683305 127.26570114 -60.70257862 123.79571453 -60.77984619 117.63270569 C-60.76298767 116.55298996 -60.74612915 115.47327423 -60.72875977 114.36083984 C-60.73730232 112.63034142 -60.73730232 112.63034142 -60.74601746 110.86488342 C-60.75710474 107.0629399 -60.72508679 103.26272738 -60.69140625 99.4609375 C-60.68782863 96.81491294 -60.68647183 94.16888453 -60.6872406 91.52285767 C-60.6844367 85.9831197 -60.65846476 80.4438767 -60.61743164 74.90429688 C-60.57021429 68.50632054 -60.55443925 62.10888512 -60.5566383 55.71074712 C-60.55847124 49.54423877 -60.54281228 43.37793444 -60.51826286 37.21147537 C-60.50871323 34.59199712 -60.50280306 31.97250299 -60.50058174 29.35300827 C-60.49408253 25.69518697 -60.46783361 22.03804629 -60.43579102 18.38037109 C-60.43715057 17.2966069 -60.43851013 16.21284271 -60.43991089 15.09623718 C-60.31928674 5.68722092 -60.31928674 5.68722092 -57 2 C-39.99542545 -6.50228727 -19.01169231 0 0 0 Z " fill="#576574" transform="translate(255,176)"/>
<path d="M0 0 C1.36067544 0.00502513 2.72135267 0.00958624 4.08203125 0.01367188 C7.38806725 0.02539541 10.69401001 0.04180573 14 0.0625 C14 0.3925 14 0.7225 14 1.0625 C13.31711914 1.12719482 12.63423828 1.19188965 11.93066406 1.25854492 C-41.46170054 6.46810143 -89.60157133 28.89571257 -124.64208984 70.38867188 C-159.04849097 112.79972655 -173.18563517 164.52543112 -167.625 218.625 C-166.1484905 231.95096551 -163.37578795 244.39759401 -159 257.0625 C-158.6289917 258.17214111 -158.6289917 258.17214111 -158.25048828 259.30419922 C-151.44015414 279.58984611 -141.38225632 297.75670679 -128.5 314.8125 C-127.69888794 315.87718506 -127.69888794 315.87718506 -126.8815918 316.96337891 C-123.24235754 321.70132325 -119.30710735 325.92806065 -115 330.0625 C-110 335.0625 -110 335.0625 -108.25390625 336.94921875 C-87.5493829 358.7496337 -56.40128041 375.42864654 -27.4375 382.6875 C-26.65181641 382.89117187 -25.86613281 383.09484375 -25.05664062 383.3046875 C-22.7083061 383.90771661 -20.35577398 384.48927906 -18 385.0625 C-16.93495239 385.32764404 -16.93495239 385.32764404 -15.84838867 385.59814453 C-9.43845057 387.12013233 -2.97439039 387.91520915 3.5625 388.6875 C4.66658203 388.8215625 5.77066406 388.955625 6.90820312 389.09375 C9.60501651 389.42063647 12.30224876 389.7434627 15 390.0625 C15 390.3925 15 390.7225 15 391.0625 C-38.95031386 392.05916631 -85.69470781 375.81547524 -127 341.0625 C-130.86328627 342.6472358 -133.28876923 345.12206887 -136.203125 348.0703125 C-136.6857782 348.55579559 -137.1684314 349.04127869 -137.66571045 349.54147339 C-139.19858562 351.08549866 -140.72434004 352.63634824 -142.25 354.1875 C-143.29120361 355.23874009 -144.33286541 356.28952657 -145.375 357.33984375 C-147.92199464 359.90883004 -150.46265177 362.48398161 -153 365.0625 C-154.06816445 364.19442399 -155.12918085 363.31755217 -156.1875 362.4375 C-156.77917969 361.95023437 -157.37085938 361.46296875 -157.98046875 360.9609375 C-160.58543045 358.51217273 -162.74813905 355.83940625 -165 353.0625 C-163.9627478 352.04095825 -163.9627478 352.04095825 -162.90454102 350.9987793 C-160.34072078 348.4711547 -157.78352153 345.93692051 -155.22827148 343.40063477 C-154.12134446 342.30376629 -153.01262917 341.20869943 -151.90209961 340.11547852 C-150.30629675 338.54393015 -148.71703377 336.96601836 -147.12890625 335.38671875 C-146.63097061 334.89910568 -146.13303497 334.41149261 -145.62001038 333.90910339 C-143.33350057 331.62334381 -142.03907628 330.17972883 -141 327.0625 C-142.55252581 324.71426687 -142.55252581 324.71426687 -144.8125 322.25 C-178.47902342 282.44336875 -194.43024553 231.81936806 -190.6484375 179.84375 C-186.44048704 129.67421269 -163.4717028 80.86555609 -125.04223633 47.78125 C-95.3119875 22.76021572 -61.41845588 7.0352238 -23 1.0625 C-21.18628906 0.76666016 -21.18628906 0.76666016 -19.3359375 0.46484375 C-12.93042538 -0.29798431 -6.43846285 -0.04098923 0 0 Z " fill="#348DEF" transform="translate(312,-0.0625)"/>
<path d="M0 0 C0.74507813 0.00451172 1.49015625 0.00902344 2.2578125 0.01367188 C4.0885764 0.02540754 5.91929873 0.0433415 7.75 0.0625 C7.42539783 0.6050865 7.10079566 1.147673 6.76635706 1.70670152 C5.53751783 4.55500917 5.49528034 6.65488043 5.48828697 9.75527573 C5.47708873 11.50717811 5.47708873 11.50717811 5.46566427 13.29447246 C5.467599 14.57850687 5.46953374 15.86254129 5.4715271 17.18548584 C5.46652518 18.56249993 5.46064969 19.93951108 5.45397437 21.31651807 C5.43814769 25.10421975 5.43474222 28.89184731 5.43332577 32.67957807 C5.42963637 36.76273039 5.4144832 40.84584183 5.40071106 44.92897034 C5.37841993 52.00453006 5.3634178 59.08007528 5.35334396 66.15566254 C5.33876833 76.38581219 5.31323466 86.61591131 5.28501268 96.84603134 C5.23952437 113.44307653 5.202918 130.040129 5.171875 146.63720703 C5.1416978 162.76124345 5.10735135 178.88526209 5.06738281 195.00927734 C5.06369049 196.49970529 5.06369049 196.49970529 5.05992357 198.0202429 C5.04754913 203.00485626 5.03509257 207.98946941 5.02259517 212.97408247 C4.91899685 254.33686358 4.82980367 295.69966658 4.75 337.0625 C2.19113496 338.38252556 -0.37167068 339.69363782 -2.9375 341 C-4.0193457 341.55977539 -4.0193457 341.55977539 -5.12304688 342.13085938 C-5.82880859 342.48857422 -6.53457031 342.84628906 -7.26171875 343.21484375 C-7.90584717 343.54476318 -8.54997559 343.87468262 -9.21362305 344.21459961 C-11.5320931 345.17995706 -13.77970451 345.64046774 -16.25 346.0625 C-16.34149501 302.6892248 -16.41200793 259.31595978 -16.45426132 215.94260715 C-16.45926433 210.82550747 -16.4644416 205.70840799 -16.46972656 200.59130859 C-16.4707758 199.5725582 -16.47182505 198.5538078 -16.47290608 197.50418618 C-16.49032569 180.99458363 -16.52187192 164.48503662 -16.55861118 147.97546706 C-16.59597736 131.0433454 -16.61822669 114.11125289 -16.62635398 97.17909169 C-16.63185074 86.72553288 -16.6492305 76.27213104 -16.68166587 65.81862053 C-16.70276041 58.65659836 -16.70921156 51.4946577 -16.70400551 44.3326067 C-16.70143582 40.19640914 -16.70545821 36.06048645 -16.7268219 31.92433739 C-16.74622386 28.14048337 -16.7473119 24.3570902 -16.73359558 20.5732154 C-16.73109335 18.55006819 -16.74840233 16.52692674 -16.76632524 14.50385737 C-16.75437894 12.71015425 -16.75437894 12.71015425 -16.74219131 10.88021469 C-16.7437102 9.84585651 -16.74522908 8.81149833 -16.74679399 7.74579597 C-16.12001285 4.36041018 -14.89796781 3.18991813 -12.25 1.0625 C-8.30573072 -0.39956673 -4.15418022 -0.04770702 0 0 Z " fill="#D83941" transform="translate(390.25,-0.0625)"/>
<path d="M0 0 C23.99264407 19.19411525 38.18619952 55.65614718 42.58764648 85.18823242 C43.39493051 92.65071049 43.34606704 100.12639907 43.3125 107.625 C43.31067719 108.46693909 43.30885437 109.30887817 43.30697632 110.17633057 C43.166998 148.51944616 30.66964309 183.26991731 6 213 C5.47921875 213.64453125 4.9584375 214.2890625 4.421875 214.953125 C3.30741672 216.32378058 2.15830606 217.66619302 1 219 C0.67 219 0.34 219 0 219 C0 146.73 0 74.46 0 0 Z " fill="#ABD5FC" transform="translate(434,86)"/>
<path d="M0 0 C0.79921875 0.01289062 1.5984375 0.02578125 2.421875 0.0390625 C3.246875 0.07257812 4.071875 0.10609375 4.921875 0.140625 C5.76234375 0.15867188 6.6028125 0.17671875 7.46875 0.1953125 C9.53694895 0.24231702 11.60455941 0.31405776 13.671875 0.390625 C13.341875 1.380625 13.011875 2.370625 12.671875 3.390625 C12.57636916 5.03684923 12.53814055 6.68667316 12.5332098 8.33565807 C12.52499813 9.87557015 12.52499813 9.87557015 12.51662058 11.44659156 C12.51564247 12.57790088 12.51466436 13.70921021 12.51365662 14.87480164 C12.50871864 16.07384575 12.50378066 17.27288987 12.49869305 18.50826865 C12.48596333 21.84216083 12.4776892 25.17601105 12.47126639 28.50991786 C12.46326912 32.10295793 12.44956903 35.6959767 12.43655396 39.28900146 C12.41478165 45.51606772 12.39663991 51.74313613 12.38094902 57.97022057 C12.35825727 66.97359042 12.33011348 75.9769367 12.30062974 84.98028658 C12.25294531 99.58686359 12.20968343 114.19345024 12.16918945 128.80004883 C12.12983886 142.99081166 12.08841368 157.18156593 12.04418945 171.37231445 C12.04146518 172.24671599 12.03874091 173.12111752 12.03593408 174.02201607 C12.02225468 178.40853715 12.00853439 182.7950581 11.99479377 187.18157899 C11.88081563 223.58457655 11.77400923 259.98759238 11.671875 296.390625 C7.58183641 297.54045102 3.64010449 297.50156756 -0.578125 297.453125 C-1.32320313 297.44861328 -2.06828125 297.44410156 -2.8359375 297.43945312 C-4.6667014 297.42771746 -6.49742373 297.4097835 -8.328125 297.390625 C-8.41962809 260.13226794 -8.49013704 222.87392776 -8.53238632 185.61548112 C-8.5373893 181.2194026 -8.54256658 176.82332429 -8.54785156 172.42724609 C-8.5489008 171.55204521 -8.54995005 170.67684432 -8.55103108 169.7751222 C-8.56844877 155.59346431 -8.59999395 141.41187112 -8.63673618 127.23025164 C-8.6741077 112.68471674 -8.69635282 98.13921578 -8.70447898 83.59363484 C-8.70997464 74.6141191 -8.72734835 65.63478618 -8.75979087 56.65532669 C-8.78089202 50.50249126 -8.78733506 44.3497507 -8.78213051 38.19688168 C-8.77956183 34.64394314 -8.78357145 31.09132463 -8.8049469 27.53844261 C-8.82792894 23.69052743 -8.82010335 19.84303266 -8.80914307 15.99505615 C-8.82079443 14.86665967 -8.8324458 13.73826318 -8.84445024 12.57567286 C-8.83648604 11.54707377 -8.82852185 10.51847467 -8.82031631 9.4587059 C-8.82259464 8.12588754 -8.82259464 8.12588754 -8.82491899 6.76614356 C-7.83106324 2.01382603 -4.68976804 -0.13399337 0 0 Z " fill="#F3B537" transform="translate(323.328125,59.609375)"/>
<path d="M0 0 C-3.59997689 2.19246713 -6.90589673 2.42770763 -11.0625 2.8125 C-38.24662364 5.83922469 -64.53553642 17.17473555 -86 34 C-86.87785156 34.67417969 -87.75570312 35.34835938 -88.66015625 36.04296875 C-120.27477814 61.01624561 -141.49216762 97.66038062 -147.63598633 137.54833984 C-148.42968069 145.07432969 -148.44023568 152.6261692 -148.4375 160.1875 C-148.43823517 161.07061859 -148.43897034 161.95373718 -148.43972778 162.86361694 C-148.39142192 185.00447117 -145.43173348 207.65125793 -134.67895508 227.42993164 C-130.45644971 235.48373416 -130.40400653 242.74729258 -130.6875 251.6875 C-130.71264792 253.08264172 -130.7354495 254.47782779 -130.75585938 255.87304688 C-130.81428171 259.24985802 -130.89615787 262.62433215 -131 266 C-140.81157334 256.29472208 -147.65047008 245.14093156 -154 233 C-154.47179687 232.10023438 -154.94359375 231.20046875 -155.4296875 230.2734375 C-166.14894068 208.20438684 -170.33252577 185.00172476 -170.4375 160.6875 C-170.44385468 159.93612762 -170.45020935 159.18475525 -170.45675659 158.41061401 C-170.68379872 115.25786673 -151.2530056 76.21336949 -121.875 45.5 C-89.12247807 13.58252821 -45.31880679 -1.54495932 0 0 Z " fill="#8AC1FE" transform="translate(326,34)"/>
<path d="M0 0 C1.96633141 1.07365688 3.33955471 2.14765018 4.91355896 3.74261475 C5.77432541 4.60372108 5.77432541 4.60372108 6.65248108 5.48222351 C7.25990143 6.10512772 7.86732178 6.72803192 8.4931488 7.36981201 C9.12643097 8.00733902 9.75971313 8.64486603 10.41218567 9.30171204 C12.43330485 11.3396113 14.44375149 13.38768517 16.4540863 15.43621826 C17.81537285 16.8125547 19.17734433 18.18821405 20.5400238 19.56317139 C23.53790317 22.59054606 26.52908723 25.6243599 29.51454163 28.66398621 C30.61428302 29.78061626 31.72086841 30.89050037 32.8290863 31.99871826 C23.94510268 40.95223859 15.05301358 49.89762115 6.15051079 58.83273029 C2.01689538 62.98199576 -2.11388528 67.13400318 -6.23829651 71.29241943 C-10.21931037 75.30604947 -14.20762599 79.31228853 -18.20109177 83.31352806 C-19.72272993 84.8407056 -21.24172687 86.37051954 -22.75801468 87.90300941 C-24.88365156 90.05044976 -27.01852028 92.18829043 -29.15577698 94.32415771 C-29.77940628 94.95857285 -30.40303558 95.59298798 -31.04556274 96.24662781 C-35.32359929 100.49470196 -39.20724628 103.63185652 -45.3896637 104.39715576 C-46.4724762 104.38942139 -47.5552887 104.38168701 -48.6709137 104.37371826 C-50.29513245 104.38531982 -50.29513245 104.38531982 -51.9521637 104.39715576 C-58.05214341 103.64206119 -61.95401424 100.59583403 -66.3584137 96.49871826 C-67.19759338 95.72528076 -68.03677307 94.95184326 -68.90138245 94.15496826 C-69.65032776 93.44340576 -70.39927307 92.73184326 -71.1709137 91.99871826 C-71.75743713 91.54110107 -72.34396057 91.08348389 -72.94825745 90.61199951 C-74.86824586 88.07859627 -74.56752216 85.8086419 -74.5459137 82.68621826 C-74.55364807 81.57633545 -74.56138245 80.46645264 -74.5693512 79.32293701 C-72.98553492 66.10894047 -57.28997478 54.91388003 -48.30763245 45.86199951 C-47.65892496 45.20796835 -47.01021748 44.55393719 -46.34185219 43.8800869 C-42.92336522 40.43511555 -39.50138082 36.99365849 -36.07691956 33.55462646 C-33.24860471 30.71285947 -30.42778503 27.86394762 -27.61305237 25.00872803 C-24.19666144 21.54323148 -20.76835469 18.08997306 -17.33089638 14.64537621 C-16.02646224 13.33421437 -14.72629864 12.01878967 -13.43050194 10.69909096 C-11.6284586 8.86565091 -9.81152074 7.04838037 -7.99000549 5.23431396 C-7.45748169 4.68538483 -6.92495789 4.13645569 -6.376297 3.57089233 C-2.74301526 -0.00161952 -2.74301526 -0.00161952 0 0 Z " fill="#FE6A6A" transform="translate(87.17091369628906,408.00128173828125)"/>
<path d="M0 0 C0.79599609 0.01611328 1.59199219 0.03222656 2.41210938 0.04882812 C3.22873047 0.09072266 4.04535156 0.13261719 4.88671875 0.17578125 C6.1406543 0.20961914 6.1406543 0.20961914 7.41992188 0.24414062 C9.47213024 0.30277515 11.52341077 0.3924491 13.57421875 0.48828125 C13.24421875 1.47828125 12.91421875 2.46828125 12.57421875 3.48828125 C12.46786537 6.52639382 12.41935415 9.54215477 12.41600037 12.58073425 C12.41106239 13.52251457 12.40612441 14.46429489 12.4010368 15.434614 C12.38562665 18.60378707 12.37729165 21.77293982 12.36889648 24.94213867 C12.35932073 27.20856405 12.34931083 29.47498762 12.33889771 31.7414093 C12.31180983 37.90631283 12.2908213 44.07122404 12.27089572 50.23615432 C12.24906009 56.67440305 12.22165957 63.11262799 12.19483948 69.55085754 C12.15056112 80.360962 12.10973141 91.1710737 12.0715332 101.98120117 C12.03217726 113.11630201 11.9907508 124.25139197 11.9465332 135.38647461 C11.94380893 136.07269542 11.94108466 136.75891623 11.93827783 137.46593162 C11.92459834 140.90845624 11.91087807 144.35098069 11.89713752 147.79350507 C11.78317589 176.35840766 11.67643914 204.92333437 11.57421875 233.48828125 C6.48913792 232.89593371 2.00329688 232.17453507 -2.86328125 230.48828125 C-3.89324219 230.13765625 -4.92320312 229.78703125 -5.984375 229.42578125 C-8.42578125 228.48828125 -8.42578125 228.48828125 -9.42578125 227.48828125 C-9.53481691 224.64240113 -9.57802888 221.82042099 -9.5796814 218.97369385 C-9.58406365 218.06981863 -9.5884459 217.16594341 -9.59296095 216.23467803 C-9.60640144 213.18151511 -9.61253955 210.12838109 -9.61865234 207.07519531 C-9.62654919 204.89599475 -9.63481788 202.7167955 -9.64343262 200.53759766 C-9.66970141 193.35971331 -9.68496526 186.18182299 -9.69921875 179.00390625 C-9.70457647 176.53716782 -9.70995397 174.07042944 -9.7153511 171.6036911 C-9.7369871 161.34566377 -9.75572524 151.08763805 -9.7669735 140.82959366 C-9.76991293 138.16601813 -9.77286496 135.50244263 -9.77587891 132.83886719 C-9.77662496 132.17682776 -9.77737101 131.51478834 -9.77813967 130.83268711 C-9.79000658 120.77477888 -9.81886764 110.71701682 -9.85791016 100.65917969 C-9.90307212 88.98723215 -9.93091812 77.31540565 -9.93689406 65.64336944 C-9.94055449 59.46208042 -9.95264923 53.28107224 -9.9849968 47.09986115 C-10.01498823 41.2853259 -10.021421 35.47124274 -10.00961304 29.65664673 C-10.00939155 27.52047799 -10.01775805 25.38428883 -10.03526688 23.24819183 C-10.05784716 20.33517964 -10.04971512 17.42382214 -10.03378296 14.51080322 C-10.05460609 13.23798693 -10.05460609 13.23798693 -10.07584989 11.93945718 C-10.01722964 7.59973611 -9.81670134 5.98171609 -7.02652931 2.45985031 C-4.32083569 0.40872437 -3.31704102 -0.11931802 0 0 Z " fill="#11AA7B" transform="translate(264.42578125,117.51171875)"/>
<path d="M0 0 C0.85078125 0.00322266 1.7015625 0.00644531 2.578125 0.00976562 C3.46757812 0.01814453 4.35703125 0.02652344 5.2734375 0.03515625 C6.170625 0.03966797 7.0678125 0.04417969 7.9921875 0.04882812 C10.21100398 0.06063034 12.42968768 0.0770947 14.6484375 0.09765625 C14.324181 0.63811459 13.99992451 1.17857292 13.66584206 1.73540878 C12.42726553 4.61118149 12.38679163 6.76378819 12.3699646 9.89361572 C12.35880112 11.07709595 12.34763763 12.26057617 12.33613586 13.47991943 C12.33397568 14.77464172 12.33181549 16.06936401 12.32958984 17.40332031 C12.3202897 18.78320909 12.3101209 20.16309225 12.29914856 21.54296875 C12.27184405 25.28640223 12.25669785 29.02979806 12.24372053 32.77330494 C12.22809195 36.68645865 12.20130086 40.59953547 12.1756897 44.51263428 C12.12889706 51.92149251 12.09215531 59.3303652 12.05901682 66.73929572 C12.02079886 75.17458382 11.97138785 83.6097947 11.92103267 92.04501772 C11.81770561 109.39584138 11.72844773 126.74670973 11.6484375 144.09765625 C7.98084176 141.94954211 4.8693265 139.70168233 1.7109375 136.84765625 C0.89753906 136.120625 0.08414063 135.39359375 -0.75390625 134.64453125 C-1.61113281 133.8040625 -2.46835938 132.96359375 -3.3515625 132.09765625 C-4.11413817 131.41912063 -4.11413817 131.41912063 -4.89211941 130.72687721 C-9.31824541 126.34370251 -10.05449045 122.86550775 -10.13140869 116.73036194 C-10.11455017 115.65064621 -10.09769165 114.57093048 -10.08032227 113.45849609 C-10.08886482 111.72799767 -10.08886482 111.72799767 -10.09757996 109.96253967 C-10.10866724 106.16059615 -10.07664929 102.36038363 -10.04296875 98.55859375 C-10.03939113 95.91256919 -10.03803433 93.26654078 -10.0388031 90.62051392 C-10.0359992 85.08077595 -10.01002726 79.54153295 -9.96899414 74.00195312 C-9.92177679 67.60397679 -9.90600175 61.20654137 -9.9082008 54.80840337 C-9.91003374 48.64189502 -9.89437478 42.47559069 -9.86982536 36.30913162 C-9.86027573 33.68965337 -9.85436556 31.07015924 -9.85214424 28.45066452 C-9.84564503 24.79284322 -9.81939611 21.13570254 -9.78735352 17.47802734 C-9.78871307 16.39426315 -9.79007263 15.31049896 -9.79147339 14.19389343 C-9.6729135 4.94589517 -9.6729135 4.94589517 -6.3515625 1.09765625 C-4.00303722 -0.07660639 -2.61382185 -0.01742548 0 0 Z " fill="#3F4D5C" transform="translate(204.3515625,176.90234375)"/>
<path d="M0 0 C1.0209375 1.0209375 1.0209375 1.0209375 2.0625 2.0625 C2.75085938 2.74892578 2.75085938 2.74892578 3.453125 3.44921875 C4.51040298 4.50916662 5.56225995 5.57454233 6.609375 6.64453125 C9.6711827 9.75549641 12.78162826 12.69181959 16.125 15.5 C21.23747751 19.98585089 25.14987413 23.78097642 25.875 30.8125 C25.54757895 35.33576115 24.19347157 37.39353399 21.10546875 40.66015625 C20.29110352 41.52697021 19.47673828 42.39378418 18.63769531 43.28686523 C14.27624845 47.77305174 9.88293617 52.22196344 5.4375 56.625 C4.06754883 57.98818359 4.06754883 57.98818359 2.66992188 59.37890625 C0.44892029 61.58827955 -1.77440033 63.79526031 -4 66 C-6.90543872 64.68623083 -8.96661059 63.27943508 -11.20800781 61.01904297 C-11.80832825 60.41857147 -12.40864868 59.81809998 -13.02716064 59.19943237 C-13.66272888 58.55354156 -14.29829712 57.90765076 -14.953125 57.2421875 C-15.61334656 56.57913605 -16.27356812 55.91608459 -16.95379639 55.23294067 C-19.05727824 53.11828168 -21.15369142 50.99676788 -23.25 48.875 C-24.67662261 47.43834443 -26.10370072 46.00214102 -27.53125 44.56640625 C-31.02613661 41.04949196 -34.51470062 37.52641453 -38 34 C-32.82861964 27.86056617 -27.37457158 22.08821177 -21.73291016 16.3828125 C-20.65913944 15.29241187 -19.59077256 14.19666385 -18.52783203 13.09570312 C-7.61704577 1.79872406 -7.61704577 1.79872406 0 0 Z " fill="#FE6A6A" transform="translate(146,352)"/>
<path d="M0 0 C4.52754685 3.22483943 9.20528415 6.61585245 11 12 C9.92621094 12.25885986 8.85242188 12.51771973 7.74609375 12.78442383 C0.87517398 15.38502779 -3.91264794 21.30117945 -8.9375 26.44921875 C-10.06839885 27.58945554 -11.20041601 28.72858417 -12.33349609 29.86665344 C-15.29722496 32.8493747 -18.24562249 35.84680621 -21.190979 38.84765625 C-24.20536644 41.91340391 -27.23414987 44.964857 -30.26171875 48.01757812 C-36.18858569 53.99789566 -42.0993175 59.99384567 -48 66 C-49.11606414 65.04422173 -50.23200757 64.08830251 -51.34790039 63.13232422 C-52.28008141 62.33385574 -52.28008141 62.33385574 -53.23109436 61.51925659 C-55.3105867 59.733247 -57.37679104 57.93263944 -59.4375 56.125 C-60.11683594 55.52945313 -60.79617187 54.93390625 -61.49609375 54.3203125 C-61.99238281 53.88460937 -62.48867187 53.44890625 -63 53 C-62.46559116 48.92067919 -60.40571721 47.02566508 -57.55957031 44.17138672 C-57.09928436 43.70584381 -56.63899841 43.2403009 -56.1647644 42.76065063 C-54.64333817 41.22603696 -53.11121807 39.70263952 -51.578125 38.1796875 C-50.51492114 37.1144622 -49.45216291 36.04879195 -48.38983154 34.98269653 C-46.16187083 32.75031387 -43.92857712 30.5234445 -41.69140625 28.30029297 C-38.82858036 25.45453795 -35.97940575 22.59555547 -33.13411331 19.73228264 C-30.94161414 17.52892448 -28.74199661 15.33278453 -26.54018402 13.13873672 C-25.48704714 12.08759707 -24.43612315 11.03423538 -23.38748932 9.97860336 C-21.91814785 8.50161507 -20.43948064 7.03463084 -18.95800781 5.56982422 C-18.11941223 4.73361542 -17.28081665 3.89740662 -16.41680908 3.03585815 C-11.36461258 -1.21998296 -6.1995169 -2.18978226 0 0 Z " fill="#EE5253" transform="translate(135,341)"/>
<path d="M0 0 C2.81878012 1.28174718 4.85241496 2.61007615 7.015625 4.8203125 C7.54414062 5.35527344 8.07265625 5.89023437 8.6171875 6.44140625 C9.15601562 6.99699219 9.69484375 7.55257813 10.25 8.125 C10.80429688 8.68832031 11.35859375 9.25164062 11.9296875 9.83203125 C13.29104485 11.21686028 14.64614859 12.60783204 16 14 C11.61557474 19.25174926 6.99157907 24.13222473 2.125 28.9375 C1.43664062 29.62134766 0.74828125 30.30519531 0.0390625 31.00976562 C-1.63833511 32.67551464 -3.31803791 34.3388622 -5 36 C-8.82801404 32.72583496 -12.65064375 29.44680373 -16.4375 26.125 C-17.45650391 25.23167969 -17.45650391 25.23167969 -18.49609375 24.3203125 C-18.99238281 23.88460938 -19.48867187 23.44890625 -20 23 C-19.45634458 19.01583909 -17.56534815 17.21636772 -14.74609375 14.453125 C-13.89208984 13.60878906 -13.03808594 12.76445312 -12.15820312 11.89453125 C-11.26037109 11.02183594 -10.36253906 10.14914062 -9.4375 9.25 C-8.53580078 8.36183594 -7.63410156 7.47367187 -6.70507812 6.55859375 C-4.47662902 4.36551685 -2.24148407 2.17973956 0 0 Z " fill="#D83941" transform="translate(92,371)"/>
<path d="M0 0 C4.10447392 0.51776621 5.95699523 2.64627444 8.75 5.5625 C9.54921875 6.38878906 10.3484375 7.21507812 11.171875 8.06640625 C11.77515625 8.70449219 12.3784375 9.34257812 13 10 C11.41568547 13.90851199 8.73364905 16.52367356 5.7734375 19.421875 C5.26575836 19.92672424 4.75807922 20.43157349 4.23501587 20.95172119 C2.61966158 22.55592096 0.99747791 24.15300856 -0.625 25.75 C-1.72441698 26.83938107 -2.82338059 27.9292199 -3.921875 29.01953125 C-6.6093602 31.68501885 -9.30299021 34.34415143 -12 37 C-13.06816445 36.13192399 -14.12918085 35.25505217 -15.1875 34.375 C-16.07501953 33.64410156 -16.07501953 33.64410156 -16.98046875 32.8984375 C-19.58543045 30.44967273 -21.74813905 27.77690625 -24 25 C-23.30849854 24.31373535 -22.61699707 23.6274707 -21.90454102 22.92041016 C-19.34325826 20.37720731 -16.78526991 17.83071291 -14.22827148 15.28320312 C-13.1204464 14.18041139 -12.01172607 13.07851824 -10.90209961 11.97753906 C-9.3086792 10.39622779 -7.71849052 8.81172876 -6.12890625 7.2265625 C-5.63097061 6.73378815 -5.13303497 6.24101379 -4.62001038 5.73330688 C-1.97665258 3.11862332 -1.97665258 3.11862332 0 0 Z " fill="#E3E9F7" transform="translate(171,328)"/>
</svg>
